<?xml version="1.0" encoding="utf-8"?>
<!-- Generator: Adobe Illustrator 23.0.3, SVG Export Plug-In . SVG Version: 6.00 Build 0)  -->
<svg version="1.1" id="Layer_1" xmlns="http://www.w3.org/2000/svg" xmlns:xlink="http://www.w3.org/1999/xlink" x="0px" y="0px"
	 viewBox="0 0 488.6 488.6" style="enable-background:new 0 0 488.6 488.6;" xml:space="preserve">
<style type="text/css">
	.st0{fill:#3C87C1;}
	.st1{fill:#F57073;}
	.st2{fill:#3A7C78;}
	.st3{fill:#956BAB;}
	.st4{fill:#FAAF4A;}
	.st5{fill:#2E8D70;}
	.st6{fill:#493A5B;}
	.st7{fill:#404F76;}
	.st8{fill:#96649F;}
	.st9{fill:#F46F70;}
	.st10{fill:#1B6484;}
	.st11{fill:#FA0263;}
	.st12{fill:#333333;}
	.st13{fill:#4A3248;}
</style>
<path class="st9" d="M410.6,410.1c-15.9-30.7-79.4-45.3-79.4-45.3s-12.7-5.5-19.1-22.4c-6.4-16.9-19.1-15.9-19.1-15.9l-1.1-24.4
	l15.9-6.7l-6.2,20.4c0,0,50.6-10.6,63.3-98.5c12.7-87.9-20.1-152.5-68.8-185.3c-48.7-32.8-86.8-11.6-86.8-11.6
	c-93.2-8.5-108,127.1-108,127.1s-11.6-1.1-12.7,33.9s25.4,48.7,25.4,48.7c28.6,37,16.9,81.3,16.9,81.3c9.5-1.3,32-15.9,32-15.9v20.4
	l9.2-4.5l-2.1,13c0,0,0,0-7.1,4.2c-7.1,4.2-27.8,36.2-27.8,36.2c-55.1,11.9-74.5,42.5-95.3,69.7c-17.1,22.4,4.5,22.4,4.5,22.4
	s359.7,0,377.7,0S426.4,440.8,410.6,410.1z M110.4,167.4c4.2-16.9,16.5,0,16.5,0c-2.4,14.6,3.8,54.1,3.8,54.1
	C110.4,216.8,106.2,184.3,110.4,167.4z M278.8,79.1l13.6-1.4l-6.6-12.2c20.2,6.6,23.5,29.2,23.5,29.2h-11.8l4.2,11.8
	c-22.6-0.9-31.5-18.4-31.5-18.4l13.6,0.5L278.8,79.1z M144.8,204.1c-2.4-55.1,8.9-92.2,26.8-112.9c0,0,3.3,29.6,11.3,37.2l2.4-21.9
	c0,0,0,37.4,47.8,51.1c0,0-21.4-28.7-16.2-60.2c0,0,8.8,56.9,53.6,65.4c0,0-17.8-33.5-10.8-56.3c0,0,19.8,45.4,40,56.3
	c20.2,10.8,16.5,35,15.5,49.3c-0.9,14.3-2.8,52.8-39.5,78.3c-36.7,25.4-60.7,16.5-78.1,6.1C180.1,286,147.1,259.2,144.8,204.1z
	 M232.5,399.4c-55.2-4.2-66-41-66-41l21.6-11.7l-0.5-38.2c0,0,43.8,28.1,89.4,0v39.2l22.6,11.3C299.6,358.9,288.6,403.7,232.5,399.4
	z"/>
<g>
	<g>
		<path class="st9" d="M187.5,217.9c-10.6,0-21.7-2.5-30.1-9.4c-10.2-8.3-14.9-21.3-14-38.6c0.1-1.9,1.1-3.6,2.7-4.7
			c1-0.7,24.6-16,50.9-9.3c24.9,6.4,31.6,14.5,32.6,16.1c0.8,1.2,1.2,2.6,1,4c-0.1,1.4-3.5,33.9-25.2,39.6
			C200.1,217,193.9,217.9,187.5,217.9z M155.3,173.7c-0.1,11.6,3.2,20.2,9.7,25.5c10,8.2,26.5,7.7,37.5,4.8
			c10.8-2.8,14.7-19.6,15.9-26.3c-2.8-2.1-9.6-6.3-24.3-10C177.3,163.3,161.4,170.4,155.3,173.7z"/>
		<path class="st9" d="M279.7,218.6c-18.9,0-37-6.7-43.9-40.5c-0.2-1-0.2-2,0.1-2.9c0.2-0.7,5.8-18.3,36.3-20.8
			c28.8-2.4,48.9,12.4,49.8,13c1.6,1.2,2.5,3.1,2.4,5.1c-0.1,1.7-2.5,42.3-32.2,45.4C288,218.2,283.8,218.6,279.7,218.6z
			 M247.9,177.5c6.1,27.3,18.9,30.9,43,28.4c15.7-1.6,20-22.4,21.1-30.7c-5.8-3.4-20.3-10.5-38.8-8.9
			C255.5,167.7,249.5,174.8,247.9,177.5z"/>
		<path class="st9" d="M224.7,181.4c-3.1,0-5.7-2.3-6-5.4c-0.3-3.3,2.1-6.2,5.4-6.5l16.9-1.6c3.3-0.3,6.2,2.1,6.5,5.4
			c0.3,3.3-2.1,6.2-5.4,6.5l-16.9,1.6C225,181.4,224.9,181.4,224.7,181.4z"/>
		<path class="st9" d="M153.6,173.8c-0.6,0-1.1-0.1-1.7-0.2l-17.4-5.1c-3.2-0.9-5-4.3-4.1-7.5c0.9-3.2,4.3-5,7.5-4.1l17.4,5.1
			c3.2,0.9,5,4.3,4.1,7.5C158.6,172.1,156.2,173.8,153.6,173.8z"/>
	</g>
</g>
</svg>
