<?xml version="1.0" encoding="UTF-8"?>
<svg width="1025px" height="987px" viewBox="0 0 1025 987" version="1.1" xmlns="http://www.w3.org/2000/svg" xmlns:xlink="http://www.w3.org/1999/xlink">
    <!-- Generator: Sketch 52.5 (67469) - http://www.bohemiancoding.com/sketch -->
    <title>Path</title>
    <desc>Created with Sketch.</desc>
    <g id="Page-1" stroke="none" stroke-width="1" fill="none" fill-rule="evenodd">
        <path d="M67.2073772,442.520624 C446.204515,252.523973 487.686789,228.501408 812.002748,75.6305397 C983.556014,-5.23349391 1008.10077,14.4821924 994.901865,136.778887 C959.020276,469.24583 945.877359,534.243145 893.081738,872.742924 C877.715704,971.262443 815.773864,975.384793 770.520475,940.44288 C643.777435,842.57962 617.790285,824.697794 478.259,713.320447 C453.700723,693.717419 429.234494,652.1721 472.602326,606.31084 C604.591379,457.80771 711.366146,342.875726 755.436011,291.833625 C770.520475,274.362668 753.550453,248.156234 732.809317,263.443321 C536.711295,414.130319 529.169063,418.498059 331.185483,571.368927 C312.329904,582.288275 282.160978,597.575361 236.907588,588.839883 C142.629693,564.817318 124.232471,555.802986 52.122914,523.323797 C18.1828717,508.03671 14.4117559,470.910928 67.2073772,442.520624 Z" id="Path" stroke="#000000" stroke-width="53" fill="#FFFFFF"></path>
    </g>
</svg>